# xmcd CD database file generated by OrangeCD 5.2
#
# Track frame offsets:
#	150
#	11160
#	32889
#	44544
#	55622
#	66315
#	83816
#	96232
#	106445
#	118544
#	132123
#	147844
#	158379
#	174722
#	196730
#	207848
#	217495
#	229388
#	242343
#	254670
#
# Disc length: 3688 seconds
#
# Revision: 6
# Processed by: cddbd v1.5.2PL0 Copyright (c) Steve Scherf et al.
# Submitted via: OrangeCD 5.2
#
DISCID=220e6614
DTITLE=Rob Rio - Bankin' On The Boogie
DYEAR=1992
DGENRE=Blues
TTITLE0=Hoy Hoy
TTITLE1=Chiropractor Blues
TTITLE2=Milk Milk Stomp
TTITLE3=Just Love Me Once More
TTITLE4=Fat Girl Boogie
TTITLE5=Too Many Drivers
TTITLE6=Rocket 69
TTITLE7=Bumble Boogie
TTITLE8=Come On
TTITLE9=Love In The Afternoon
TTITLE10=Dog Duty Blues
TTITLE11=Lucky Yuppie
TTITLE12=Time Will Tell
TTITLE13=Big Mouth Woman
TTITLE14=Rio A La Yancy
TTITLE15=Lie, Lie, Lie
TTITLE16=Rock This Joint
TTITLE17=I'm Your Professor
TTITLE18=When I Get Lucky
TTITLE19=Saturday Nite Special
EXTD=
EXTT0=
EXTT1=
EXTT2=
EXTT3=
EXTT4=
EXTT5=
EXTT6=
EXTT7=
EXTT8=
EXTT9=
EXTT10=
EXTT11=
EXTT12=
EXTT13=
EXTT14=
EXTT15=
EXTT16=
EXTT17=
EXTT18=
EXTT19=
PLAYORDER=
